<svg xmlns="http://www.w3.org/2000/svg" version="1.1" xmlns:xlink="http://www.w3.org/1999/xlink" viewBox="0 0 7.081964729725888 4.994005411146831"><g transform="matrix(0.832287591544619,0,0,0.832287591544619,1.996104593853877,2.766532401277441)"><g><path d=" M -0.25230709925569117 0.07447832626323575 Q -0.2628991633162706 0.09601453249684572 -0.29430613074028517 0.08056777240850069 Q -0.3014848661514885 0.07703708438830753 -0.3095682784497683 0.07194705043792776 Q -0.3176516907480481 0.066857016487548 -0.325742438007004 0.06064897260950569 Q -0.3482199959310708 0.04290751298042719 -0.3819803425812273 0.009587263970834509 Q -0.41574068923138385 -0.023732985038758203 -0.4517810655009218 -0.06374662369297368 Q -0.4878214417704597 -0.10376026234718921 -0.5207211212975962 -0.14222922499257018 Q -0.5536208008247326 -0.18069818763795115 -0.5734796825763588 -0.20829573853608213 Q -0.5910732046299557 -0.23143591964491528 -0.6174488177889991 -0.26391017145284 Q -0.6438244309480423 -0.29638442326076464 -0.675363427664226 -0.33195536204703446 Q -0.7069024243804097 -0.3675263008333043 -0.7379780802120411 -0.4006405517629871 Q -0.7690537360436724 -0.43375480269266986 -0.7964960144056458 -0.45839565004628113 Q -0.8239382927676192 -0.4830364973998923 -0.8423411372195038 -0.4932018953792998 Q -0.7918846104421506 -0.43718280126339804 -0.7599929164325356 -0.3819363547424037 Q -0.7281012224229207 -0.3266899082214093 -0.7053596059145157 -0.2687000911964813 Q -0.6948861395867135 -0.24014651868654135 -0.682331306758764 -0.20109685578579106 Q -0.6697764739308143 -0.16204719288504066 -0.6598916620000377 -0.12096750820887525 Q -0.6500068500692612 -0.0798878235327099 -0.6484261184380264 -0.04344950184372409 Q -0.6468453868067918 -0.007011180154738256 -0.6578787868698954 0.015422368005272136 Q -0.6777389069834818 0.05580275469329085 -0.7024971137079101 0.06535687421266434 Q -0.7272553204323384 0.07491099373203788 -0.7510128765999213 0.06656961944813553 L -0.7581916120111246 0.06303893142794237 Q -0.7680623732015293 0.05818423540017681 -0.7685477189681097 0.05237351776060231 Q -0.7685477189681097 0.05237351776060231 -0.7687757219300477 0.05170417879614003 Q -0.769003724891986 0.051034839831677725 -0.7685623888894618 0.05013749790527733 Q -0.7667970448793653 0.04654813019967566 -0.7587209675417614 0.05052015422239295 Q -0.7488502063513569 0.055374850250158536 -0.7351987492967929 0.05707417961417055 Q -0.7215472922422288 0.05877350897818254 -0.7153685882068908 0.046210722008576705 Q -0.7091898841715528 0.0336479350389709 -0.7026945384651837 0.0011816373727023821 Q -0.6961991927588147 -0.031284660293566136 -0.6987286110411822 -0.07599038747871356 Q -0.7017727149328346 -0.13097887201408537 -0.7242343645735889 -0.2144622493739886 Q -0.7466960142143433 -0.2979456267338918 -0.8042566884341787 -0.4142932471795113 Q -0.8183048525462304 -0.44237614384422286 -0.8395024122267811 -0.46951768881847755 Q -0.8606999719073319 -0.49665923379273225 -0.8762781421068659 -0.5193654138597174 Q -0.8918563123064001 -0.5420715939267025 -0.8910763297508166 -0.559518416766778 Q -0.890693673433701 -0.5693598381144784 -0.8862803134084595 -0.5783332573784825 Q -0.8792189373680732 -0.5926907282008892 -0.8638094712640887 -0.5956987764701414 Q -0.8484000051601042 -0.5987068247393934 -0.8250691150736933 -0.5872320886737658 Q -0.8134036700304879 -0.5814947206409519 -0.7994728652892533 -0.5712999828188402 Q -0.786439402474419 -0.5615465809992526 -0.7625644869360192 -0.5353170478727505 Q -0.7391309074001435 -0.5081901728198479 -0.710276601502485 -0.47282523211348804 Q -0.6814222956048265 -0.4374602914071283 -0.6498539590459385 -0.39741731291020843 Q -0.6178296165631743 -0.3560356564843641 -0.5880559638570871 -0.3168753499924928 Q -0.5722571256562909 -0.2946178408887079 -0.5537589267156175 -0.2699183138496881 Q -0.5352607277749442 -0.24521878681066833 -0.5190132186109478 -0.22274060970562143 Q -0.5027657094469515 -0.20026243260057447 -0.4923949325686143 -0.18736099907790943 Q -0.47886145406584735 -0.1695608597634224 -0.456317881495696 -0.14175731078538145 Q -0.4337743089255447 -0.11395376180734057 -0.41055406243025494 -0.0852602058635753 Q -0.3873338159349653 -0.05656664991981003 -0.37021096972659673 -0.03700116659522645 Q -0.356692161145182 -0.021437047136064424 -0.33934131197487527 -0.0012022248470185404 Q -0.3219904628045686 0.019032597442027344 -0.3073463093348153 0.03570739186817584 Q -0.292702155865062 0.052382186294324284 -0.2882007763117078 0.056824886162269994 Q -0.2859500865350307 0.05904623609624285 -0.2805660349766282 0.06169425211138771 Q -0.2751819834182257 0.06434226812653257 -0.27385797541065326 0.0616502423473313 Q -0.27209263140055673 0.058060874641729654 -0.2779620287255397 0.04960214098701027 Q -0.280227388423569 0.04514477119771246 -0.29826224647969 0.022901932015279736 Q -0.3090743593605514 0.010897840419015092 -0.3275578883798727 -0.01156566676467971 Q -0.34604141739919403 -0.034029173948374514 -0.3676803130822689 -0.06027337699622881 Q -0.38931920876534376 -0.08651758004408305 -0.40781007274534115 -0.1100990971554403 Q -0.44342378293370704 -0.15324609759138125 -0.4813175227414543 -0.20308648767194487 Q -0.5187552566253253 -0.251588199823584 -0.5557663244280242 -0.3032232737569486 Q -0.5927773922307232 -0.3548583476903131 -0.6235217364699714 -0.40564008946133356 Q -0.6696382528288437 -0.4818127021178642 -0.7022359606063013 -0.5424211953152329 Q -0.7348336683837589 -0.6030296885126015 -0.7517058875671808 -0.6525607718828103 Q -0.7676807648242026 -0.7016505192504948 -0.7679521583692168 -0.7430168865740069 Q -0.7682235519142313 -0.7843832538975191 -0.7501287758107413 -0.821174272879936 Q -0.7249726236668652 -0.8723227626847596 -0.6766035599883753 -0.8958957064734805 Q -0.6282344963098856 -0.9194686502622016 -0.5664866074838064 -0.9147306944242728 Q -0.5047387186577272 -0.909992738586344 -0.4401300999568972 -0.8782165464046057 Q -0.38000819088806936 -0.8486470342354882 -0.33002233995594465 -0.796202637903836 Q -0.28003648902382 -0.743758241572184 -0.24226072776786992 -0.6778170415411452 Q -0.20448496651191983 -0.6118758415101064 -0.18028731270377313 -0.5364538715664547 Q -0.15519231696922603 -0.4605905656202791 -0.14754414407475458 -0.3855072422296867 Q -0.1394399652564069 -0.30908524091016987 -0.14858394615890091 -0.23724592289242397 Q -0.157727927061395 -0.16540660487467812 -0.18641476722546435 -0.10707937965865111 Q -0.2062748873390508 -0.06669899297063242 -0.23118041245798052 -0.045516103211433845 Q -0.25562993165303394 -0.022994535523310627 -0.2663393550844304 -0.019346488132300443 Q -0.2783874564447515 -0.015242434817413997 -0.283771508003154 -0.017890450832558857 Q -0.28646353378235523 -0.019214458840131288 -0.2855808617773069 -0.021009142692932137 Q -0.28469818977225864 -0.022803826545732986 -0.2766807921200634 -0.027775881944315545 Q -0.2646473606810945 -0.034115955114526975 -0.24893592282743102 -0.05926353393576683 Q -0.23322448497376752 -0.08441111275700663 -0.22042574090056735 -0.1104340286226187 Q -0.19791760477183606 -0.15619846686903993 -0.19541566878923233 -0.21793168577376698 Q -0.1929137328066286 -0.27966490467849403 -0.20475459772507942 -0.3462234797682825 Q -0.21659546264353025 -0.41278205485807085 -0.23891774803143934 -0.4750232435923868 Q -0.26124003341934854 -0.5372644323267027 -0.28704166210271836 -0.584500816156178 Q -0.33907158555063005 -0.675840222033403 -0.3996782212050583 -0.74520942063517 Q -0.46028485685948656 -0.8145786192369369 -0.5239961336339161 -0.845913475416151 Q -0.560787152616333 -0.864008251519641 -0.5974974870313134 -0.8698049184188434 Q -0.6342078214462938 -0.8756015853180461 -0.6649754089295306 -0.8617594192859044 Q -0.6957429964127672 -0.8479172532537627 -0.7156031165263537 -0.8075368665657439 Q -0.7266365165894573 -0.7851033184057334 -0.725761798726065 -0.754027043393122 Q -0.7248870808626731 -0.7229507683805104 -0.7166202945474915 -0.6899104862385685 Q -0.7083535082323102 -0.6568702040966266 -0.6962986910922933 -0.6258672786907756 Q -0.6842438739522763 -0.5948643532849247 -0.6733584114646542 -0.5716801624120353 Q -0.6081189861456828 -0.44375511645132304 -0.5321481325132866 -0.31612408809863346 Q -0.45617727888089055 -0.18849305974594388 -0.35616156725258474 -0.07689620751666465 Q -0.344452112445323 -0.06445077991787584 -0.3246445754184293 -0.044679298513382315 Q -0.30483703839153553 -0.024907817108888758 -0.28590483840901404 -0.0022236419239319016 Q -0.26697263842649255 0.020460533261024955 -0.25655051682342284 0.04118803627732745 Q -0.24612839522035318 0.06191553929362992 -0.25230709925569117 0.07447832626323575 M 0.1606623954483256 -0.5909990396872098 Q 0.13408746369757132 -0.5624548108056522 0.09672293096590703 -0.5685492093604226 Q 0.05935839823424276 -0.5746436079151932 0.016908006564233916 -0.6141653012881099 Q 0.009588973517680666 -0.6209793863524058 0.002610644724342218 -0.6281594230690294 Q -0.0043676840689962325 -0.6353394597856531 -0.01173721191377521 -0.643566856661034 Q -0.04351202280330854 -0.6813472933040162 -0.06926790606579224 -0.7388006176409883 Q -0.09502378932827595 -0.7962539419779604 -0.1085775736076179 -0.8785539719397354 Q -0.1176134297938459 -0.9334206585809187 -0.10645896223907914 -0.9776877779085829 Q -0.09530449468431237 -1.021954897236247 -0.07009237994641729 -1.049035319508494 Q -0.052375758779247744 -1.0680648054295325 -0.03142855560410257 -1.0758887864583428 Q -0.005560008489272988 -1.084596155186486 0.01932470386900806 -1.0614282659678798 Q 0.037622286485391176 -1.04439305330714 0.047679984161645844 -1.0104358343772413 Q 0.057737681837900484 -0.9764786154473426 0.048930408591776886 -0.9259273351671349 Q 0.03643864269288152 -0.8596781405703159 0.019327959104420728 -0.8236889129162583 Q 0.0022172755159599045 -0.7876996852622009 -0.012723216827265495 -0.7701845007486988 Q -0.010123548527493705 -0.7568337807407306 0.0016249110804696446 -0.7349654544023925 Q 0.013373370688433 -0.7130971280640543 0.028289158171780997 -0.6916957429744953 Q 0.043204945655128994 -0.6702943578849363 0.0564801947353763 -0.6552023811470338 Q 0.059407807953997596 -0.6524767471213153 0.06236066857173176 -0.6490444571900544 Q 0.06531352918946592 -0.6456121672587937 0.06897304571274254 -0.6422051247266457 Q 0.09093014485240229 -0.6217628695337577 0.11382085522000256 -0.6147975713444023 Q 0.1367115655876028 -0.6078322731550468 0.15510959526120194 -0.6275936623807407 Q 0.17146339941551228 -0.6451593416924685 0.179097346776932 -0.6790410896946462 Q 0.18673129413835177 -0.7129228376968239 0.18890121411396943 -0.7512084935916811 Q 0.1910711340895871 -0.7894941494865383 0.18993500112950823 -0.821293665235949 Q 0.18879886816942937 -0.8530931809853598 0.18688060837608717 -0.8671758042979832 L 0.17436115365151944 -0.9799377803954227 L 0.16794994189455842 -1.0405587038773971 Q 0.16779845749988123 -1.0447986393106519 0.1691612745127404 -1.0462624459199625 Q 0.17324972555131798 -1.0506538657478945 0.17910495198856058 -1.0452025976964578 Q 0.18130066190252656 -1.043158372177169 0.18301694250296585 -1.034728996108885 Q 0.18644950370384444 -1.0178702439723175 0.18891044694330433 -0.998500325067682 Q 0.19137139018276425 -0.9791304061630465 0.19339063957255787 -0.9622211592282531 Q 0.19556137335702872 -0.941071976860205 0.1998900815916051 -0.909032746454031 Q 0.20421878982618147 -0.8769935160478568 0.20864848765720928 -0.842127662019513 Q 0.2130781854882371 -0.807261807991169 0.2134066729463221 -0.7782636684648152 Q 0.2145935719742444 -0.7252392281500177 0.20398178786559534 -0.6756848132303416 Q 0.1933700037569463 -0.6261303983106654 0.1606623954483256 -0.5909990396872098 M -0.018300993143884323 -0.7876741665934703 Q -0.009493177358525284 -0.7986022213650745 -0.0025026317700569817 -0.8207862758271323 Q 0.004487913818411321 -0.84297033028919 0.009913663201117515 -0.8693438253862769 Q 0.015339412583823694 -0.8957173204833637 0.018014280541698652 -0.9198698582673717 Q 0.020689148499573595 -0.9440223960513797 0.02154701753017549 -0.9596193207715396 Q 0.024045153694260413 -0.9887184498943448 0.015438774562568841 -1.0117603733870046 Q 0.006832395430877242 -1.0348022968796644 -0.004878057443607947 -1.0457048329825378 Q -0.012928993794816518 -1.0532003265532635 -0.02253196701742191 -1.054626126429096 Q -0.03213494024002728 -1.0560519263049284 -0.039630433810752846 -1.04800098995372 Q -0.0539400124457744 -1.0326310205559581 -0.05563050310786541 -1.0007305152100958 Q -0.05732099376995636 -0.9688300098642335 -0.05096054808083876 -0.9294340109476458 Q -0.04460010239172117 -0.890038012031058 -0.03546352787865947 -0.8521563145220066 Q -0.02632695336559776 -0.8142746170129552 -0.018300993143884323 -0.7876741665934703 M 0.8151702474410412 -1.109562468240801 Q 0.8116613108992297 -1.1076422171255715 0.8058349518855431 -1.1078736056378935 Q 0.7774318938624036 -1.1014497209149106 0.7547377319224615 -1.1220888830549702 Q 0.7352382265898472 -1.1410564683462863 0.7217964687832412 -1.1656190241389668 Q 0.6997135809581028 -1.2059717943697992 0.6855085145978765 -1.2631750817727236 Q 0.672992310840558 -1.3110430736201502 0.6653423405393111 -1.3604341452261606 Q 0.6572951988814186 -1.4084679199179106 0.6527241909313386 -1.4532742351683337 Q 0.6481531829812587 -1.4980805504187569 0.6461154689355401 -1.5288839223359332 Q 0.6422714293564247 -1.5963170251839722 0.640984843638588 -1.6611598713367333 Q 0.6396982579207513 -1.7260027174894945 0.6403405661952258 -1.7810716510190314 Q 0.6420223541008203 -1.8925668149923651 0.6508913352830181 -1.9430181893323157 Q 0.6141959986841572 -1.9309164426858063 0.5769463507614091 -1.9156614851430498 Q 0.5396967028386608 -1.9004065276002935 0.5002211667432814 -1.8788037025539626 Q 0.42127009455252235 -1.8355980524613003 0.3650045414246237 -1.7780182163099911 Q 0.30873898829672497 -1.720438380158682 0.2814480902700167 -1.6599056874637768 Q 0.2645009332702557 -1.622132762376812 0.2626238965404354 -1.594316818511559 Q 0.2607468598106152 -1.566500874646306 0.26986805260795493 -1.5498334260727014 Q 0.28090949652052416 -1.5296570409572852 0.3060108465572567 -1.528574346940756 Q 0.33111219659398927 -1.5274916529242268 0.3644470937411986 -1.5457340385189062 Q 0.433748590441976 -1.5836589980446876 0.48108466224810403 -1.6346422924259365 Q 0.5284207340542322 -1.6856255868071854 0.565361207570922 -1.7514389700689714 Q 0.566155550284213 -1.7541535638974919 0.5696644868260246 -1.7560738150127215 Q 0.5722961892323832 -1.7575140033491434 0.5736949318577242 -1.7559995664676413 Q 0.5750936744830655 -1.7544851295861394 0.5726277549210306 -1.748575879150291 Q 0.5532146783592345 -1.7048937036274778 0.5185656986831741 -1.6557236089823792 Q 0.4839167190071137 -1.6065535143372807 0.43896367534085867 -1.5637140014415933 Q 0.39401063167460376 -1.5208744885459058 0.34313105181833686 -1.493030847375079 Q 0.33699041287016673 -1.4896704079234275 0.33084977392199655 -1.486309968471776 Q 0.3247091349738264 -1.4829495290201247 0.31808843324684893 -1.480466323703926 Q 0.2925657518965536 -1.4687790341682256 0.2611165343562464 -1.4720876163573862 Q 0.22966731681593908 -1.4753961985465467 0.21718568456694778 -1.4982042860683216 Q 0.19702304785703875 -1.5350481197573425 0.2035090008993634 -1.5773557126117315 Q 0.20832337709294418 -1.6164686488587927 0.22969815048105052 -1.6555246223149378 Q 0.25107292386915686 -1.6945805957710829 0.2858963292666228 -1.7330166522353423 Q 0.32119979744289606 -1.7705754745641489 0.36201534469837215 -1.8043110804166602 Q 0.40283089195384825 -1.8380466862691716 0.44672540156049123 -1.8671975357660957 Q 0.4906199111671342 -1.89634838526302 0.5309726813979665 -1.9184312730881585 Q 0.5976424756923853 -1.9549160442775178 0.6620950246912546 -1.9787879718818893 Q 0.6708500802916196 -1.9961185518327884 0.6826840982431517 -2.008864375428101 Q 0.6945181161946838 -2.0216101990234128 0.7059221599555712 -2.0278510151479088 Q 0.7182034378519115 -2.0345718940512114 0.7284988589650241 -2.0345062883832137 Q 0.7387942800781369 -2.0344406827152155 0.7440749706450178 -2.0247911072252336 Q 0.748395535654284 -2.0168960000061578 0.7478498672074784 -2.007477813028498 Q 0.7810362672645278 -2.017659308559778 0.8204876434029901 -2.0278494469681396 Q 0.8599390195414522 -2.0380395853765014 0.8971558646302015 -2.0481468323627015 Q 0.9343727097189505 -2.0582540793489015 0.9630900476765737 -2.068269792035858 Q 0.9719452804532643 -2.0708358887742184 0.9907315658204212 -2.077126793486877 Q 1.009517851187578 -2.0834176981995354 1.0315730417071427 -2.0920674710951497 Q 1.0536282322267074 -2.100717243990764 1.0702956808003121 -2.1098384367881033 Q 1.0825769586966525 -2.116559315691407 1.0897105260364364 -2.123312997428709 Q 1.0968440933762202 -2.130066679166011 1.094840950838829 -2.135810146757535 Q 1.088997306070979 -2.148571487432683 1.0710295233740303 -2.1564078631865145 Q 1.053061740677082 -2.164244238940346 1.031990835672049 -2.165252684411795 Q 1.0109199306670162 -2.166261129883244 0.9968841844997702 -2.1585801254223265 Q 0.9942524820934115 -2.1571399370859043 0.9937724193146042 -2.158017171221357 Q 0.993292356535797 -2.1588944053568104 0.9954439961633482 -2.1612118278286854 Q 0.9993501040618054 -2.1644893758581745 1.0115156877019846 -2.1682970752546344 Q 1.0236812713421641 -2.1721047746510944 1.0363269177611507 -2.175035239912101 Q 1.0489725641801375 -2.1779657051731083 1.0547160317716622 -2.1799688477104993 Q 1.0899055743661026 -2.1844068756502546 1.1033473321727088 -2.1598443198575743 Q 1.110548273854819 -2.146685807825781 1.1067423431326875 -2.1286437765837523 Q 1.1053194405504292 -2.1187455268272855 1.102779272443314 -2.1088058313597373 Q 1.1002391043361992 -2.098866135892189 1.0951414823678056 -2.0915166971199186 Q 1.0839861128734039 -2.078572287846284 1.068957438314544 -2.0674980410997152 Q 1.053928763755684 -2.0564237943531474 1.0363840810466265 -2.046822538777 Q 0.9942768425448882 -2.0237795253942465 0.9400696260709689 -2.0072242337281465 Q 0.8858624095970495 -1.9906689420620463 0.8318865816354521 -1.9799400094096327 Q 0.7779107536738546 -1.9692110767572186 0.7369777434878894 -1.962769906280072 Q 0.7314346302490158 -1.931237797317603 0.7271987253362396 -1.9066907586047577 Q 0.7229628204234635 -1.8821437198919126 0.7196455953572212 -1.8569594784330183 Q 0.7163283702909788 -1.8317752369741238 0.7144599764382404 -1.797694317027458 Q 0.7099288460194725 -1.7268178833056056 0.7089981864417598 -1.6493621935678568 Q 0.7080675268640471 -1.571906503830108 0.7132032576894245 -1.493780808512311 Q 0.7179418171581564 -1.4142978162802535 0.7306583752681259 -1.3369008580077493 Q 0.7433749333780957 -1.259503899735245 0.7674126438267909 -1.1905822886369495 Q 0.7784713734935238 -1.1578759513587076 0.7899928801849003 -1.1368223321078383 Q 0.8015143868762769 -1.1157687128569693 0.8123727621903588 -1.1125913420038052 Q 0.8169247157119469 -1.1105225937984158 0.8151702474410412 -1.109562468240801 M 1.1543945960396296 -1.8725705916291497 Q 1.129583762327704 -1.864797398558141 1.122109538220965 -1.8886539694349924 Q 1.1176250037569213 -1.9029679119611034 1.1249827208179055 -1.9162763303363461 Q 1.1323404378788897 -1.929584748711589 1.1447458547348526 -1.9334713452470935 Q 1.1571512715908152 -1.937357941782598 1.1669989635322968 -1.9310118434989532 Q 1.1768466554737784 -1.9246657452153082 1.1788247263391347 -1.9116623904308063 Q 1.179848534369417 -1.8983600666820348 1.1733242736325047 -1.8874086274233446 Q 1.1668000128955924 -1.8764571881646541 1.1543945960396296 -1.8725705916291497 M 1.1304534541434332 -1.4071247604901156 Q 1.0808317867195822 -1.391578374348098 1.0613988040420603 -1.4536054586279121 Q 1.0572132385422863 -1.4669651383189488 1.0546945856906562 -1.4850387762430906 Q 1.0522332887812915 -1.506274171636724 1.054387726938691 -1.537863068360509 Q 1.0565421650960904 -1.5694519650842937 1.061559391758712 -1.6019377687008873 Q 1.0665766184213337 -1.6344235723174807 1.0717494241925614 -1.6580507194252707 Q 1.0765085491149888 -1.6763086144291515 1.0823366487570212 -1.7011889933362851 Q 1.0881647483990535 -1.7260693722434188 1.0939354920988205 -1.7477879936810607 Q 1.0997062357985874 -1.7695066151187027 1.100775210518192 -1.7761290990219558 Q 1.102614190993132 -1.790328329663536 1.1175486547924434 -1.8028667422834437 Q 1.1324831185917548 -1.8154051549033512 1.1458427982827915 -1.8195907204031252 Q 1.1611110036439765 -1.8243742238314384 1.1638017243224026 -1.8157858583157718 Q 1.16559553810802 -1.8100602813053275 1.1632733315890715 -1.804093091272879 Q 1.154410375615021 -1.7688305330644614 1.1423344008556848 -1.7220820482375507 Q 1.1302584260963486 -1.6753335634106403 1.1202117835181626 -1.6271250063599862 Q 1.1101651409399766 -1.578916449309332 1.1065567251853048 -1.5369166953131306 Q 1.1029483094306332 -1.4949169413169292 1.111319440430181 -1.4681975819348554 Q 1.1158039748942246 -1.4538836394087447 1.1237431411655578 -1.4469396031965607 Q 1.1316823074368914 -1.4399955669843767 1.1459962499630023 -1.4444801014484203 Q 1.1612644553241873 -1.4492636048767333 1.1761928244970272 -1.4701835425879075 Q 1.1911211936698671 -1.4911034802990815 1.2038994241505545 -1.5155415003862822 Q 1.2166776546312421 -1.539979520473483 1.2229316243750175 -1.5534661013019933 L 1.2357385328268378 -1.57948500012394 Q 1.2390150021808601 -1.5857511591206581 1.2411877242176739 -1.5921954805706438 Q 1.2433604462544876 -1.5986398020206294 1.245682652773436 -1.6046069920530779 Q 1.2476485343858492 -1.6083666874511087 1.2495570600559975 -1.608964625379648 Q 1.2552826370664418 -1.6107584391652652 1.257973357744868 -1.6021700736495987 Q 1.2594682025662158 -1.5973987594742285 1.256847027082998 -1.592385832276854 Q 1.2505357013969571 -1.5757374939788518 1.243925406746647 -1.560043418515924 Q 1.2373151120963366 -1.5443493430529958 1.2297505546109522 -1.5283562986257984 Q 1.2148630526621877 -1.4922541894668373 1.1917435101042917 -1.4556688542638678 Q 1.1686239675463956 -1.4190835190608984 1.1304534541434332 -1.4071247604901156 M 1.3349921896701609 -1.2867898941950509 Q 1.3162916888247733 -1.2834296459703414 1.2996826896968376 -1.2967014637798289 Q 1.2830736905689022 -1.3099732815893166 1.2770606147983692 -1.3434373357336942 Q 1.2737003665736597 -1.3621378365790815 1.2741002107256258 -1.3825299949899545 Q 1.274300132801609 -1.392726074195391 1.2750767541992798 -1.422330074925101 Q 1.2758533755969508 -1.4519340756548114 1.2784216155980987 -1.482876023610564 Q 1.2807361062977953 -1.5208844849422336 1.2880832759216108 -1.570465419771247 Q 1.2954304455454262 -1.6200463546002606 1.3086945699419685 -1.6762785784936212 Q 1.3179986798858518 -1.72062306561606 1.3291713025649425 -1.7602232234752235 Q 1.340343925244033 -1.7998233813343871 1.3518702582625666 -1.8374550654203519 L 1.2160455679118578 -1.8130490519987772 Q 1.205218962159265 -1.81110364513184 1.2043346863106574 -1.8160248295648367 Q 1.2023892794437203 -1.8268514353174294 1.2240424909489056 -1.8307422490513037 L 1.3578987075264157 -1.8547945521334352 Q 1.374546147053929 -1.9035065912734446 1.3940463362032491 -1.9476511563199002 Q 1.413546525352569 -1.9917957213663555 1.4398364116700928 -2.032080232998144 Q 1.4530313353478503 -2.054771508615397 1.4658879288457682 -2.0652098036691546 Q 1.4787445223436861 -2.075648098722912 1.4933812009919505 -2.0818341829566935 Q 1.5080178796402148 -2.0880202671904753 1.526010959806716 -2.095317462961582 Q 1.4906399525275535 -2.0320648595048274 1.4654381108410934 -1.9772436302627665 Q 1.4402362691546333 -1.9224224010207056 1.419905631382174 -1.8659364278258934 L 1.5655726905988763 -1.8921109929446838 Q 1.5773835332380683 -1.8942332549813423 1.5784446642563976 -1.8883278336617464 Q 1.5789752297655624 -1.8853751230019484 1.5741809199832915 -1.8809575904653821 Q 1.5693866102010205 -1.8765400579288158 1.5585600044484278 -1.8745946510618787 L 1.413877182118325 -1.84859694111281 Q 1.3976834139682461 -1.8030144678023203 1.3842539678551131 -1.7533566388415769 Q 1.37082452174198 -1.7036988098808334 1.3559456339116822 -1.645144401874831 Q 1.3434119971002876 -1.5961555465271084 1.3364569848817802 -1.5415649996802376 Q 1.3295019726632729 -1.4869744528333666 1.3274412312650279 -1.4418994781257801 Q 1.3253804898667831 -1.3968245034181936 1.3287407380914926 -1.3781240025728063 Q 1.3368760758986842 -1.3328491057892367 1.3614819980636677 -1.3372704850322756 Q 1.3732928407028597 -1.3393927470689342 1.3888868426249892 -1.3543869827631143 Q 1.423027557129046 -1.384906019660639 1.4490290937857258 -1.4154865705302906 Q 1.4750306304424057 -1.4460671213999419 1.4976373185149836 -1.478577698976927 Q 1.5099248994378718 -1.495009842935141 1.526210941879284 -1.5202885854196184 Q 1.5424969843206964 -1.5455673279040958 1.5590982900356867 -1.5719187348600332 Q 1.575699595750677 -1.5982701418159708 1.5882639928812783 -1.6188160884903038 L 1.6016357717287575 -1.6405231272209577 Q 1.6040579168793907 -1.6440064033899202 1.6060263906525896 -1.6443601137293635 Q 1.6119318119721855 -1.6454212447476928 1.613346653329958 -1.637547349654898 Q 1.6142309291785657 -1.6326261652219014 1.611178257480776 -1.6269975601100184 Q 1.607671914405552 -1.618239389168616 1.6030044792740068 -1.6102885999440912 Q 1.5973528072558625 -1.602160955549845 1.5928622272940387 -1.593225929438721 Q 1.5599133651655097 -1.533456602150929 1.518283226227308 -1.4711113414490438 Q 1.4766530872891066 -1.4087660807471587 1.430478541163613 -1.3547483865155028 Q 1.4110244858268162 -1.3329644536531189 1.3892482463773776 -1.3127952842244905 Q 1.367472006927939 -1.2926261147958622 1.3349921896701609 -1.2867898941950509 M 1.8520762812732567 -1.9616167220033154 Q 1.8261072120627124 -1.9603488717211597 1.8248881252529472 -1.9853191305774522 Q 1.8241566731670882 -2.000301285891228 1.8346315706037555 -2.0113251928071674 Q 1.8451064680404228 -2.022349099723107 1.858091002645695 -2.022983024864185 Q 1.871075537250967 -2.0236169500052625 1.8790054861593704 -2.014993382859927 Q 1.8869354350677736 -2.0063698157145913 1.885571739500348 -1.9932877541645377 Q 1.8832092335786708 -1.9801569291420937 1.8741350247286 -1.9712037881432436 Q 1.865060815878529 -1.9622506471443932 1.8520762812732567 -1.9616167220033154 M 1.711578641319176 -1.5172369146680433 Q 1.6596405028980874 -1.514701214103732 1.656470877192698 -1.5796238871300925 Q 1.6557881885792296 -1.5936072320896164 1.6579068771389538 -1.6117321088833187 Q 1.660878085635758 -1.632902180212167 1.6709258822741295 -1.662927865595084 Q 1.6809736789125012 -1.6929535509780014 1.694017906613628 -1.7231255267780903 Q 1.7070621343147547 -1.7532975025781794 1.7180238256455724 -1.7748576816861523 Q 1.7272317136298398 -1.7913262820780855 1.7391434518425186 -1.813934035012701 Q 1.7510551900551974 -1.8365417879473163 1.7621144083307962 -1.856104346346786 Q 1.773173626606395 -1.8756669047462555 1.7758774768348067 -1.8818060572889377 Q 1.781236413819239 -1.8950831727285533 1.7988492741528401 -1.9034519928884719 Q 1.8164621344864411 -1.9118208130483907 1.830445479445965 -1.9125035016618592 Q 1.8464264451139922 -1.913283717220109 1.8468653163655075 -1.9042944240318436 Q 1.8471578971998512 -1.8983015619063335 1.8434064731447974 -1.8931124562455124 Q 1.825940744058124 -1.8612228292882882 1.8024703823927204 -1.8190281362180079 Q 1.7790000207273169 -1.7768334431477277 1.7571254015380722 -1.73271427457753 Q 1.7352507823488272 -1.688595106007332 1.7211715921040338 -1.6488612866332661 Q 1.7070924018592402 -1.6091274672592 1.708457779086177 -1.5811607773401524 Q 1.7091892311720362 -1.5661786220263767 1.715121559371936 -1.5574575279362597 Q 1.721053887571836 -1.548736433846143 1.7360360428856114 -1.549467885932002 Q 1.7520170085536386 -1.5502481014902516 1.7717367869937442 -1.5667293131651605 Q 1.7914565654338497 -1.5832105248400692 1.809982479630141 -1.6036382144595942 Q 1.8285083938264324 -1.6240659040791192 1.8379600991726526 -1.635540452699794 L 1.856912273337484 -1.6574907395868919 Q 1.8616625077467894 -1.6627286087201034 1.8653895500656479 -1.6684171195580502 Q 1.8691165923845063 -1.6741056303959971 1.8728680164395601 -1.679294736056818 Q 1.8757181570851436 -1.682437457536745 1.8777157777936468 -1.682534984481526 Q 1.8837086399191572 -1.6828275653158697 1.8841475111706725 -1.6738382721276044 Q 1.8843913285326257 -1.6688442203563458 1.8805911410051812 -1.6646539250497767 Q 1.870286915721881 -1.650134181893956 1.85993392696619 -1.6366132490923875 Q 1.8495809382104993 -1.6230923162908186 1.8382291391005567 -1.6095226200168593 Q 1.8147217844159824 -1.578339222579543 1.7831264199526133 -1.5487633380716053 Q 1.751531055489244 -1.5191874535636676 1.711578641319176 -1.5172369146680433 M 2.3090802963142303 -1.4741307402892165 Q 2.269653789339771 -1.480879854882472 2.2784276383110025 -1.5321343139492694 Q 2.2814647398779675 -1.549876242087776 2.2910907289504268 -1.5705484537347405 Q 2.29424314935297 -1.5771106367256083 2.303842433910802 -1.5917001444615724 Q 2.313441718468635 -1.6062896521975365 2.3256028759021 -1.6239915235641031 Q 2.3377640333355654 -1.6416933949306696 2.3486020723650065 -1.6575926688133447 Q 2.3594401113944476 -1.6734919426960198 2.364084378065846 -1.6828423858451405 Q 2.3379861702296503 -1.6548444654270318 2.307536844291244 -1.6280986517378453 Q 2.2770875183528374 -1.6013528380486586 2.244960015634895 -1.5855470299671774 Q 2.212832512916953 -1.5697412218856963 2.1803056446630236 -1.575309241425132 Q 2.149918829622649 -1.5815254679092665 2.1398048606932516 -1.5994895329418581 Q 2.1296908917638544 -1.61745359797445 2.1335716326549763 -1.6401238394847644 Q 2.1381272850054236 -1.6667367316925246 2.155354528772366 -1.6962532028941155 Q 2.172581772539308 -1.7257696740957065 2.191584909275515 -1.747880322982273 Q 2.2241299812670006 -1.783905568145478 2.2671798869467996 -1.8161034814468149 Q 2.3102297926265987 -1.8483013947481517 2.3559301855029813 -1.8663492226214515 Q 2.4016305783793643 -1.8843970504947514 2.439085760005101 -1.8779853916311589 Q 2.4587990134923308 -1.8746108343345311 2.476429873183795 -1.8649981975193852 Q 2.4940607328752593 -1.855385560704239 2.510257405715657 -1.8373947911570205 Q 2.523017611453102 -1.8230359210922118 2.520655421345463 -1.809236643651151 Q 2.5182932312378234 -1.7954373662100902 2.506465279145486 -1.7974621005880669 Q 2.4975943150762325 -1.7989806513715494 2.495676398756763 -1.8114835149232127 Q 2.4885995313943305 -1.8471895080943113 2.4600153138378476 -1.8520826161744215 Q 2.434388084304449 -1.8564695406600373 2.3989661378337592 -1.8391985908243274 Q 2.36354419136307 -1.8219276409886176 2.3275893567832595 -1.795616999218823 Q 2.287185687911509 -1.7670242808852692 2.2534862253808305 -1.730182100912534 Q 2.2197867628501524 -1.6933399209397988 2.2002507380048244 -1.6621895801191475 Q 2.182206559428352 -1.6338274994567494 2.1796756414558813 -1.6190425593413271 Q 2.176469812024085 -1.6003149685284588 2.1912547521395074 -1.5977840505559882 Q 2.2080110176036527 -1.5949156768538546 2.244924810343198 -1.6149748868478175 Q 2.269477762881284 -1.6280191392856724 2.299745008697546 -1.6507379383449974 Q 2.330012254513808 -1.6734567374043223 2.3572381483745692 -1.6961888887209606 Q 2.3844640422353307 -1.718921040037599 2.399808574974501 -1.7315125179102133 Q 2.4135192380946107 -1.7464127768612134 2.4221061554634553 -1.7550883085510087 Q 2.4270611733498892 -1.7603273731378521 2.436438321013637 -1.761765810377454 Q 2.4458154686773845 -1.7632042476170562 2.4556720954209994 -1.7615169689687422 Q 2.467500047513337 -1.7594922345907658 2.474626073516488 -1.7537069296374879 Q 2.4817520995196385 -1.7479216246842102 2.47629089803871 -1.7397255720742821 Q 2.470829696557782 -1.7315295194643543 2.4532206899007014 -1.7086729474433602 Q 2.435611683243621 -1.6858163754223658 2.4139489574420523 -1.657059179612516 Q 2.392286231640483 -1.6283019838026662 2.3731010147821316 -1.6021643202862381 Q 2.3539157979237797 -1.57602665676981 2.344316513365947 -1.561437149033846 Q 2.3252866721151135 -1.533243796236279 2.322755754142643 -1.5184588561208567 Q 2.3205622918998348 -1.5056452413541574 2.3304189186434496 -1.5039579627058435 Q 2.33731855736398 -1.502776867652024 2.3524676577236923 -1.5082999789392764 Q 2.37600824307279 -1.5154302553309624 2.401151743137786 -1.5319243271290823 Q 2.426295243202782 -1.5484183989272025 2.449889237581134 -1.5677140831408891 Q 2.4625875335122553 -1.5767003660457202 2.473145776229823 -1.5850384420058525 Q 2.48370401894739 -1.5933765179659851 2.493445326855427 -1.6028689844653103 Q 2.4969084984730054 -1.6053197888939006 2.4988798238217287 -1.6049823331642379 Q 2.5047937998678975 -1.6039699659752495 2.5032752490844152 -1.5950990019059963 Q 2.5024316097602584 -1.5901706885341889 2.4978140476034865 -1.5869029492960685 Q 2.484609568077871 -1.5749596783681528 2.4715738164170866 -1.5640020701145987 Q 2.4585380647563024 -1.5530444618610444 2.444516650421156 -1.5422555814723218 Q 2.431480898760372 -1.5312979732187677 2.4180366796948225 -1.52091756023481 Q 2.404592460629273 -1.5105371472508522 2.39090850202379 -1.5017195922108524 Q 2.365680638026378 -1.4847326890755517 2.3447729372280155 -1.4781662556961488 Q 2.3238652364296524 -1.471599822316746 2.3090802963142303 -1.4741307402892165 M 2.4968052869647446 -1.918832132107664 Q 2.495002689480853 -1.9201552505116883 2.4851727672518646 -1.9279252330710024 Q 2.475342845022877 -1.9356952156303167 2.46486471584919 -1.9456052514031852 Q 2.4543865866755032 -1.9555152871760537 2.44914752208866 -1.9604703050624879 Q 2.4412889252083945 -1.9679028318921392 2.426965861526991 -1.9820219624170143 Q 2.4126427978455873 -1.9961410929418892 2.4011923582548524 -2.009261208535089 Q 2.3897419186641176 -2.0223813241282893 2.389093711719419 -2.024521377341844 Q 2.3897686231787443 -2.0284640280392896 2.397680629088263 -2.033196909031639 Q 2.405592634997782 -2.037929790023988 2.4193919124388428 -2.035567599916349 Q 2.4262915511593732 -2.034386504862529 2.4319390831509815 -2.0288542917064984 Q 2.43758661514259 -2.0233220785504678 2.440685626515879 -2.0177188537193347 Q 2.446572898047421 -2.010623782619346 2.4571086866388967 -1.995123874272658 Q 2.4676444752303723 -1.97962396592597 2.4804756926429206 -1.962716575242842 Q 2.4933069100554683 -1.9458091845597139 2.5031101277698298 -1.9319564980893995 Q 2.50556093219842 -1.9284933264718207 2.5048860207390944 -1.9245506757743747 Q 2.503367469955612 -1.9156797117051214 2.4968052869647446 -1.918832132107664 M 3.264359070988585 -0.8317705058659642 Q 3.2227476621248305 -0.8536220653611912 3.2034726216440363 -0.8964994814967717 Q 3.183732654365471 -0.9384915485075914 3.179345212458323 -0.9989646859614345 Q 3.174957770551175 -1.0594378234152777 3.176082693511105 -1.1271817127953112 Q 3.1772076164710352 -1.1949256021753447 3.176705295638768 -1.2595707696187157 Q 3.1762029748065 -1.3242159370620867 3.166048452397998 -1.3758578355037128 Q 3.094305810620704 -1.3446329519840765 3.0285058970824594 -1.3085930937940182 Q 2.9627059835442147 -1.2725532356039597 2.8964733364885706 -1.2260103901387058 Q 2.867009670636744 -1.2064683228332265 2.8405680289704267 -1.1926810248386919 Q 2.81412638730411 -1.1788937268441573 2.800846150432699 -1.185867628810719 Q 2.780483120563202 -1.196560945159447 2.7967555584851795 -1.2275481645260728 Q 2.800010046069575 -1.233745608399398 2.8048472729753877 -1.2408061491620934 Q 2.8096844998812 -1.247866689924789 2.8161044661084293 -1.2557903275768547 Q 2.8326193084742735 -1.27648477083178 2.8656811864863334 -1.3082560191911956 Q 2.8987430644983934 -1.340027267550611 2.9381136475607303 -1.3741330909438618 Q 2.9774842306230678 -1.4082389143371126 3.015437781056702 -1.438570877832435 Q 3.0533913314903365 -1.4689028413277574 3.0801544454971004 -1.487604063979257 L 3.094211140461748 -1.4971648864685019 Q 3.0703512185639887 -1.5119535350556053 3.040303793837886 -1.5192612205530234 Q 3.010256369111783 -1.5265689060504415 2.975747635336077 -1.5232301498153402 Q 2.961868958254552 -1.5226118275152645 2.964193592243406 -1.5270385731390683 Q 2.969772713816656 -1.5376627626361972 2.9979504903066942 -1.537549131313817 Q 3.0135998656377403 -1.5372376000183512 3.0379147732882887 -1.5340697512300894 Q 3.062229680938837 -1.5309019024418273 3.0887901546816594 -1.5169540985087038 Q 3.093216900305463 -1.51462946451985 3.0980863204916473 -1.5120723671321106 Q 3.102955740677831 -1.5095152697443712 3.1069175595038643 -1.5063052866307565 Q 3.135960803028701 -1.5271976298587675 3.174146816861221 -1.5579722679164703 Q 3.212332830693741 -1.588746905974173 3.250585601232432 -1.6228749816028143 Q 3.2888383717711225 -1.6570030572314554 3.3185023077414635 -1.6866054372497499 Q 3.348166243711804 -1.7162078172680446 3.359744909185293 -1.7361059203397708 Q 3.305575736490871 -1.6888756257228419 3.2522275263604667 -1.6604156806090118 Q 3.1988793162300624 -1.6319557354951817 3.1416582962151867 -1.611177023589551 Q 3.1141878509667853 -1.6018832279249913 3.0761699139724077 -1.5907865407305384 Q 3.03815197697803 -1.5796898535360857 2.9979651716425315 -1.571991108383352 Q 2.957778366307033 -1.5642923632306185 2.922871462439727 -1.5634216954416948 Q 2.8879645585724214 -1.5625510276527714 2.865830830453403 -1.5741741975970411 Q 2.828646167213452 -1.5937011231034142 2.819285614842721 -1.617818130780877 Q 2.80992506247199 -1.6419351384583398 2.8184272582442067 -1.6645782978459098 L 2.8207518922330608 -1.6690050434697137 Q 2.8272608674018516 -1.6813999312163639 2.8339677425437286 -1.6812664178040215 Q 2.8339677425437286 -1.6812664178040215 2.83573844079325 -1.6803365642084798 Q 2.8392798372922927 -1.6784768570173967 2.8350954961123556 -1.67050871489455 Q 2.830446228134648 -1.6616552236469426 2.8284085030604413 -1.6491713269587307 Q 2.826370777986235 -1.6366874302705188 2.8396510148576457 -1.629713528303957 Q 2.8511605534795357 -1.6236694799329368 2.881650652768019 -1.6161293310366331 Q 2.9121407520565024 -1.6085891821403298 2.954662132425836 -1.609979222242786 Q 3.008361638031631 -1.6111467399913382 3.089477143370065 -1.6301078790312387 Q 3.1705926487084994 -1.6490690180711391 3.2834420083718525 -1.7004987956671116 Q 3.313237087609108 -1.714219336955475 3.3386721779287307 -1.7336179498036306 Q 3.3641072682483535 -1.7530165626517864 3.385192310695325 -1.7673577963856535 Q 3.4062773531422965 -1.7816990301195206 3.4250477026453954 -1.7808780675555032 Q 3.433525276036794 -1.779814700547619 3.437952021660597 -1.7774900665587652 Q 3.454773655031051 -1.76865645740112 3.4533765044923106 -1.7434116961550299 Q 3.4519793539535706 -1.7181669349089397 3.4380315500204466 -1.6916064611661177 Q 3.4347770624360514 -1.6854090172927925 3.4317550382505413 -1.6796542479818477 Q 3.428733014065031 -1.673899478670903 3.423707828231114 -1.6686318883931195 Q 3.412218171699187 -1.6532050354159777 3.3801751562242304 -1.6276757354006681 Q 3.3481321407492737 -1.6021464353853585 3.3054971290575597 -1.5725786187928636 Q 3.262862117365846 -1.5430108022003686 3.220924495870788 -1.5147710092950146 Q 3.1789868743757306 -1.486531216389661 3.1477080058036013 -1.4656833776324307 Q 3.1654793748595593 -1.4371495653761455 3.1769642911006306 -1.407398990609671 Q 3.197727861207155 -1.4168262996865733 3.2180710089866893 -1.427603884686007 Q 3.237949229968453 -1.43749612056068 3.258712800074978 -1.4469234296375824 Q 3.3250988426329267 -1.478702248896551 3.4065036270314364 -1.5121949507438512 Q 3.487908411429946 -1.5456876525911514 3.575211419596724 -1.5721297547207373 Q 3.6611641518409708 -1.5981514345233334 3.747779710856074 -1.6125300622916974 Q 3.8343952698711776 -1.6269086900600613 3.9112028616623133 -1.6204593611611573 Q 3.927272659320349 -1.61879755394316 3.9431099935794993 -1.6166930721627824 Q 3.9589473278386498 -1.6145885903824047 3.973622345103373 -1.610270735790125 Q 3.9767433192754265 -1.6097613045215733 3.979189155486213 -1.6090416620895267 Q 3.9816349916970006 -1.6083220196574801 3.982520340821761 -1.6078570928597093 Q 3.986947086445565 -1.6055324588708553 3.9868580775040035 -1.6010612087762708 Q 3.985374288169129 -1.593933911307404 3.982297818467857 -1.596678967623248 Q 3.970877288787529 -1.6071942660888527 3.9431644390952614 -1.6081932465359936 Q 3.9154515894029935 -1.6091922269831345 3.8813632779542773 -1.6045031948255017 Q 3.847274966505561 -1.5998141626678692 3.818078327478419 -1.5936858456461431 Q 3.7902319643738087 -1.5879779509514074 3.7542616934986186 -1.5786297097710855 Q 3.7182914226234285 -1.5692814685907637 3.68793246660186 -1.560939778757136 Q 3.657573510580291 -1.5525980889235083 3.6440707513549757 -1.548393865653609 Q 3.6256318152373055 -1.5433933022005104 3.5909673158138657 -1.5322298582998863 Q 3.556302816390427 -1.5210664143992623 3.5128392712351424 -1.5060524128495574 Q 3.469375726079858 -1.4910384112998525 3.4227467022817395 -1.4742982159714069 Q 3.376117678483621 -1.4575580206429615 3.3333070190542116 -1.4416364177331054 Q 3.2904963596248025 -1.4257148148232495 3.257580306215494 -1.4125037048034377 Q 3.2377465897045115 -1.404847093976057 3.219938287077326 -1.397821116639161 Q 3.2021299844501403 -1.3907951393022653 3.1854172421112104 -1.3826290972063329 Q 3.1984503342478985 -1.3407705436078556 3.2073757829558023 -1.2835618347833893 Q 3.216301231663706 -1.2263531259589229 3.2238096477429075 -1.165370557236528 Q 3.2313180638221084 -1.1043879885141334 3.2398453424384126 -1.0496473681358447 Q 3.248372621054717 -0.9949067477575559 3.261915144459957 -0.9561691683311317 Q 3.2759670991337484 -0.9205525630767604 3.2902960216772064 -0.8876142574320618 Q 3.3046249442206643 -0.8546759517873632 3.325873323214922 -0.8435177086408643 Q 3.340038909211094 -0.8360788798765317 3.3575924962040036 -0.841544370127401 Q 3.3751460831969133 -0.8470098603782704 3.3902216406986643 -0.8628126312116211 Q 3.405297198200415 -0.8786154020449719 3.4186465619234254 -0.8975836515211565 Q 3.4319959256464356 -0.9165519009973411 3.4452562804278846 -0.9310489003789411 Q 3.4470714831481866 -0.9323546718306918 3.4488421813977084 -0.9314248182351501 Q 3.449727530522469 -0.9309598914373793 3.445078262544761 -0.9221064001897721 Q 3.4362446533871163 -0.905284766819318 3.4314618719970658 -0.8897244004298339 Q 3.4266790906070153 -0.8741640340403497 3.4197051886404535 -0.8608837971689387 Q 3.4136611402694332 -0.8493742585470492 3.4034005574381045 -0.8395142159527478 Q 3.3931399746067754 -0.8296541733584464 3.374236111691334 -0.8237682607805871 Q 3.3445300413956405 -0.8145189695868083 3.3163967693763827 -0.8168682259564806 Q 3.288263497357125 -0.819217482326153 3.264359070988585 -0.8317705058659642 M 2.8137750918287194 -1.206186154209435 Q 2.8164311392030017 -1.2047913738161227 2.826392501929274 -1.2108553042771053 Q 2.8336533128104833 -1.2160783900841081 2.8648876769118314 -1.234690603794046 Q 2.89612204101318 -1.2533028175039838 2.931407232882123 -1.2731762981948915 Q 2.976653787477338 -1.299113709346782 3.035680069167535 -1.3319336433782443 Q 3.0947063508577317 -1.3647535774097068 3.1606719710886906 -1.3978826725912072 Q 3.1560918299625818 -1.414971332786346 3.150116908443161 -1.429403945607203 Q 3.14414198692374 -1.4438365584280597 3.135001586761485 -1.456542977470176 L 3.072399345146446 -1.4126116749084234 Q 3.063323331544934 -1.40608281764967 3.0422160368625724 -1.3906237713921568 Q 3.0211087421802105 -1.3751647251346435 2.996371042057244 -1.3570941359736288 Q 2.971633341934277 -1.3390235468126144 2.9500611204541443 -1.3226791514303402 Q 2.9284888989740114 -1.3063347560480663 2.9175976826521977 -1.2985001273375623 Q 2.9026111340920084 -1.287168606598796 2.8810389126118756 -1.270824211216522 Q 2.8594666911317432 -1.254479815834248 2.841967549654595 -1.24051449995659 Q 2.8244684081774474 -1.226549184078932 2.8199081491413014 -1.2221669429259092 Q 2.818092946420999 -1.2208611714741584 2.816930629426572 -1.2186477986622566 Q 2.815768312432145 -1.2164344258503548 2.8148384588366033 -1.2146637276008334 Q 2.811119044454437 -1.2075809346027475 2.8137750918287194 -1.206186154209435 M 3.713347614591365 -1.2557341814269776 Q 3.6931138901283087 -1.2720619612623718 3.7088136784315724 -1.2915174655537722 Q 3.718233551413531 -1.3031907681286126 3.733387884389118 -1.3044541730775647 Q 3.748542217364705 -1.305717578026517 3.758659079596233 -1.2975536881088199 Q 3.7687759418277613 -1.2893897981911226 3.7689606693260065 -1.2776758801552393 Q 3.7691453968242516 -1.265961962119356 3.7594250665632427 -1.2571010829520888 Q 3.7489265161305774 -1.2488681953169523 3.7361954964767357 -1.2482192434131163 Q 3.7234644768228935 -1.2475702915092803 3.713347614591365 -1.2557341814269776 M 3.31284364724204 -1.0173865946184457 Q 3.272376198315927 -1.0500421542892344 3.3131956479044127 -1.1006264654468756 Q 3.3219875293542405 -1.11152154785006 3.3356260374475584 -1.1236455363434765 Q 3.351926740308924 -1.1374761938197309 3.3794020224808192 -1.153211786264082 Q 3.4068773046527148 -1.1689473787084335 3.436687247339578 -1.182798996556393 Q 3.4664971900264416 -1.1966506144043527 3.4890236542610555 -1.2054573396235624 Q 3.5068537204917045 -1.2116289470487533 3.5307863964301047 -1.2205859009074886 Q 3.5547190723685054 -1.229542854766224 3.575989553538858 -1.2367931396421217 Q 3.5972600347092105 -1.2440434245180194 3.603362644416962 -1.246828770951564 Q 3.6161958553645954 -1.2531776839903088 3.6349137549453827 -1.2477104876993792 Q 3.65363165452617 -1.2422432914084494 3.6645267369293544 -1.2334514099586218 Q 3.6769782596758507 -1.223403545444533 3.671326335886676 -1.2163995638996288 Q 3.6675583866938926 -1.2117302428696926 3.6613055483466157 -1.2103511081399347 Q 3.6270516275891045 -1.1981581219290787 3.5814593603945233 -1.1822648789605108 Q 3.5358670931999425 -1.166371635991943 3.4901861731985844 -1.1479799653818672 Q 3.4445052531972262 -1.1295882947717917 3.4075620606976385 -1.1092855725912956 Q 3.3706188681980507 -1.0889828504107997 3.353035105298395 -1.0671926856044311 Q 3.343615232316437 -1.0555193830295908 3.34224351947137 -1.0450614480579685 Q 3.3408718066263035 -1.0346035130863462 3.352545109201144 -1.0251836401043881 Q 3.36499663194764 -1.0151357755902992 3.390684014214612 -1.0143243618422912 Q 3.416371396481584 -1.0135129480942835 3.443792524705422 -1.0164424065650302 Q 3.47121365292926 -1.0193718650357768 3.485903761499256 -1.0216523716026875 L 3.514655987107118 -1.025435164564853 Q 3.521687045626051 -1.0261863077624802 3.528253879739393 -1.0279545525780662 Q 3.534820713852735 -1.029722797393652 3.541073552200012 -1.03110193212341 Q 3.5452921873113716 -1.0315526180419865 3.5468486276546836 -1.0302966349777254 Q 3.55151794868462 -1.026528685784942 3.545866024895445 -1.019524704240038 Q 3.542726067234792 -1.0156336033817577 3.537101220419646 -1.0150326888236558 Q 3.519748917081602 -1.0110455132739076 3.5030246052756886 -1.0078365578958155 Q 3.486300293469775 -1.0046276025177232 3.468797761492206 -1.0020466386717615 Q 3.430502511236889 -0.9943998218253447 3.387237482672585 -0.9933333775792842 Q 3.3439724541082807 -0.9922669333332238 3.31284364724204 -1.0173865946184457 M 3.5825250684204644 -0.7648173805810673 Q 3.557611701689068 -0.7908043803714808 3.563953230201419 -0.8232047664205242 Q 3.5702947587137697 -0.8556051524695675 3.5948380362936048 -0.8791344432714419 Q 3.5991692029253404 -0.8832866710600078 3.6038463885394565 -0.8870779682959293 Q 3.6085235741535726 -0.8908692655318508 3.6135467787500692 -0.8942996322151275 Q 3.632166051784949 -0.9052231239486623 3.6572851276337373 -0.9057541875068236 Q 3.682404203482526 -0.9062852510649847 3.6893245831301362 -0.8990666400120921 Q 3.6900464442354255 -0.899758677976853 3.692814596094469 -0.8968712335556961 Q 3.710115545213495 -0.8788247059234644 3.738545695183447 -0.8686769686049278 Q 3.7669758451533992 -0.8585292312863914 3.7959160413786375 -0.8557970083004867 Q 3.8248562376038757 -0.8530647853145821 3.8440482560414035 -0.8576108196626266 Q 3.8561409559881517 -0.8608920706432621 3.861193983725176 -0.8657363363965892 Q 3.8705781780939366 -0.8747328299384823 3.8588135326929995 -0.8870044687283998 Q 3.8546613049044334 -0.8913356353601354 3.848719335922908 -0.8946436566149936 Q 3.8427773669413834 -0.8979516778698517 3.8357973410127166 -0.902342490782644 Q 3.8141055789808993 -0.9134089924862089 3.7806820475549787 -0.921540262191519 Q 3.747258516129058 -0.9296715318968289 3.708331556991883 -0.9283708196562805 Q 3.6835734116957393 -0.9281857750804998 3.6431878187777214 -0.9247940373754043 Q 3.602802225859704 -0.9214022996703087 3.5598901190731738 -0.9155884290885496 Q 3.5169780122866436 -0.9097745585067906 3.485001255937607 -0.9026691342833998 Q 3.475044316166199 -0.9000500981269971 3.466259637474309 -0.9027108161278866 Q 3.457474958782419 -0.9053715341287762 3.4519386550643314 -0.9111464229710904 Q 3.446402351346243 -0.9169213118134044 3.445498498531479 -0.9243666492865646 Q 3.4445946457167143 -0.9318119867597248 3.4510913956643177 -0.9380403284425738 Q 3.4554225622960533 -0.9421925562311398 3.4625517039273612 -0.9448712386685991 Q 3.4803894695758952 -0.9522748942972725 3.5049954463030923 -0.9620112133810246 Q 3.5296014230302895 -0.9717475324647766 3.553500450222461 -0.9814987631187929 Q 3.577399477414633 -0.9912499937728091 3.5944855588173494 -0.9965477123666711 Q 3.6258597466232096 -1.008616694905502 3.661475631639221 -1.020596208022748 Q 3.6970915166552323 -1.0325757211399942 3.7419424803373627 -1.046482232448882 Q 3.790343103264883 -1.0610211354414743 3.853634401138723 -1.0773677440635954 Q 3.9169256990125634 -1.0937143526857165 3.983692098280473 -1.1071586053164164 Q 4.050458497548383 -1.1206028579471163 4.111074165851069 -1.1274578383423224 Q 4.1716898341537565 -1.1343128187375286 4.216153097009019 -1.129838642135763 Q 4.25851042282947 -1.1261161497798147 4.279796519597851 -1.1125827804887938 Q 4.301082616366232 -1.0990494111977727 4.314983021942508 -1.0874399872320881 Q 4.269708428560371 -1.086980428658942 4.225471892125375 -1.0854380784278619 Q 4.18123535569038 -1.083895728196782 4.13087791143069 -1.0771780048002584 Q 4.05073911727836 -1.0668448701446775 3.968736024081749 -1.0519538424370936 Q 3.8867329308851386 -1.0370628147295096 3.8105376025376763 -1.012501219951841 Q 3.7549481916977916 -0.992455836381689 3.6980343512094414 -0.9766819731622159 Q 3.6411205107210916 -0.9609081099427428 3.5932926331962194 -0.9399917495646601 Q 3.624458059018382 -0.942163438613139 3.665911532024069 -0.945886283730351 Q 3.7073650050297564 -0.9496091288475629 3.7501727308244375 -0.950474352684146 Q 3.792980456619119 -0.9513395765207291 3.8299983820012216 -0.9459615471041991 Q 3.8670163073833246 -0.9405835176876689 3.8900324990636075 -0.9252454956334248 Q 3.896320487027513 -0.921576543825922 3.900472714816079 -0.9172453771941864 Q 3.904624942604645 -0.9129142105624508 3.9080851324284502 -0.9093049050360045 Q 3.9260781195122365 -0.8905365162984836 3.925750064966426 -0.8749836265279306 Q 3.925422010420615 -0.8594307367573776 3.9131503716306972 -0.8476660913564404 Q 3.892938260682598 -0.8282890283431321 3.851815895089027 -0.8234983031382505 Q 3.824892166477015 -0.8212371446681868 3.791844477174003 -0.8304213828909024 Q 3.7587967878709914 -0.839605621113618 3.729072031393102 -0.8554387778528839 Q 3.6993472749152123 -0.8712719345921498 3.681324464690898 -0.8886264242596205 Q 3.6748575378838226 -0.8838119816468216 3.6669319772959046 -0.8769065135694756 Q 3.659006416707987 -0.8700010454921296 3.651065944549805 -0.8623886278797586 Q 3.6286882502858377 -0.8409354509721673 3.61333531666133 -0.8172123097568593 Q 3.5979823830368214 -0.7934891685415513 3.6125151802968025 -0.7783300853304767 Q 3.6159753701206077 -0.7747207798040304 3.622609377066894 -0.770690897443883 Q 3.6292433840131797 -0.7666610150837354 3.6397730691872363 -0.7629025938546479 Q 3.6629383765701604 -0.7546340671506551 3.6929613644533323 -0.752939901111892 Q 3.7229843523365047 -0.7512457350731289 3.753427917053378 -0.7527253861568468 Q 3.768980806823931 -0.752397331611036 3.7824277595596727 -0.7528209613110427 Q 3.7958747122954146 -0.7532445910110495 3.8093514881716843 -0.7550821197811064 Q 3.812901147417074 -0.755714511464811 3.8142852233465963 -0.7542707892542324 Q 3.8184374511351624 -0.7499396226224968 3.811940701187559 -0.7437112809396477 Q 3.8083313956611127 -0.7402510911158426 3.8026757993809115 -0.7403703836779557 L 3.733967490351096 -0.7354542601783498 Q 3.7176629163347257 -0.7336763776893493 3.7006812159238582 -0.7333273058406633 Q 3.683699515512991 -0.7329782339919771 3.6667625498129155 -0.7347500107483665 Q 3.6088225110813825 -0.7373866585800752 3.5825250684204644 -0.7648173805810673 M 4.180719757047852 -0.7195234041317042 Q 4.16525969311341 -0.7404276243549739 4.185359904866554 -0.7552930704457838 Q 4.1974200319184405 -0.7642123381002697 4.2124029171347175 -0.7616117322870265 Q 4.227385802350994 -0.7590111264737833 4.235115834318215 -0.7485590163621485 Q 4.242845866285436 -0.7381069062505137 4.240069423881547 -0.7267252821318788 Q 4.237292981477658 -0.7153436580132442 4.225651635678759 -0.7092216429862745 Q 4.213415672036227 -0.7039036364294307 4.20093273052565 -0.70648746522475 Q 4.188449789015073 -0.7090712940200694 4.180719757047852 -0.7195234041317042 M 3.733039964934448 -0.5899247786247204 Q 3.7021198370655637 -0.6317332190712598 3.754380387623738 -0.6703833789073654 Q 3.7656365062054986 -0.6787080287182189 3.7818925121986595 -0.6869991244932248 Q 3.8011551614458297 -0.696270065329002 3.8317115165163123 -0.7045651943097114 Q 3.8622678715867944 -0.7128603232904209 3.894608080188174 -0.7187434268607531 Q 3.926948288789554 -0.7246265304310853 3.9509678807857833 -0.7274654035058564 Q 3.9697781947441193 -0.7289392043027172 3.9951964130541073 -0.7315686867509951 Q 4.020614631364095 -0.7341981691992728 4.043026206420073 -0.7358478065867793 Q 4.065437781476051 -0.7374974439742856 4.072045685827703 -0.7386531256257027 Q 4.086065503001132 -0.7415591067721694 4.1027986877124585 -0.7315465881371487 Q 4.119531872423785 -0.7215340695021281 4.127856522234638 -0.7102779509203674 Q 4.137370407732757 -0.6974138153983553 4.130134331501625 -0.6920622548056637 Q 4.12531028068087 -0.6884945477438694 4.118911766955712 -0.6887374924062104 Q 4.082689765352798 -0.6855805001859956 4.0345626630650155 -0.6817033845852742 Q 3.9864355607772337 -0.6778262689845529 3.9375923683146485 -0.671553904991378 Q 3.888749175852064 -0.6652815409982032 3.847878960019041 -0.654955580618552 Q 3.807008744186018 -0.6446296202389007 3.7844965070224967 -0.6279803206171937 Q 3.7724363799706104 -0.6190610529627077 3.7684707018794565 -0.6092874457843245 Q 3.764505023788303 -0.5995138386059413 3.773424291442789 -0.5874537115540549 Q 3.7829381769409074 -0.5745895760320427 3.8075899740223207 -0.5673239789707669 Q 3.832241771103734 -0.560058381909491 3.859514984222018 -0.5559752646928704 Q 3.886788197340302 -0.5518921474762498 3.901578468948009 -0.5503928590549486 L 3.930355003693298 -0.5467996643687137 Q 3.9373481352620887 -0.5457527112362469 3.9441486532223102 -0.545807075495722 Q 3.9509491711825313 -0.5458614397551973 3.9573476849076896 -0.5456184950928562 Q 3.9615435638489642 -0.544990323213376 3.9627327995362287 -0.5433823062731246 Q 3.9663005065980235 -0.53855825545237 3.959064430366891 -0.5332066948596785 Q 3.9550443880162627 -0.5302336056415164 3.94944988276123 -0.5310711681474899 Q 3.931652967899513 -0.5315906115080198 3.914660061507922 -0.5327046727121819 Q 3.8976671551163307 -0.5338187339163442 3.880079630881107 -0.5357368035906321 Q 3.8410939306865246 -0.5379984800348042 3.7989593046831343 -0.5478814599272471 Q 3.756824678679744 -0.55776443981969 3.733039964934448 -0.5899247786247204 M 3.9433734250029477 -0.25732272414936563 Q 3.9351924959047495 -0.2722248179314574 3.9432195968153265 -0.284616978799176 Q 3.9512466977259035 -0.29700913966689463 3.9670253852598827 -0.30567129988851605 Q 3.995076385320291 -0.32107069583806525 4.0394382738075985 -0.3254607812403895 Q 4.083800162294906 -0.3298508666427138 4.132562009464817 -0.3303821486565023 Q 4.181323856634729 -0.33091343067029083 4.223494260742317 -0.33410043826405655 Q 4.265664664849905 -0.33728744585782233 4.289332696150875 -0.35028068619025443 Q 4.300728414925415 -0.3565366907947588 4.305575624885112 -0.364331211665641 Q 4.310422834844808 -0.37212573253652315 4.306091754733997 -0.3800150763035129 Q 4.300316981252917 -0.3905342013261659 4.280740333380178 -0.39918029050375325 Q 4.260201223260593 -0.4095795671851161 4.222353863741798 -0.41618088352771976 L 4.164224999588296 -0.4264782206700895 Q 4.118711921941057 -0.4345751190315914 4.0690135568486125 -0.44094477421363176 Q 4.019315191756168 -0.44731442939567223 3.977325479039647 -0.4510712932452149 Q 3.9353357663231257 -0.45482815709475755 3.911633755175825 -0.45436483477363115 Q 3.8932771750348105 -0.4545544805658463 3.88750240155373 -0.46507360558849925 Q 3.884133783689766 -0.47120976185171354 3.8873825532124395 -0.4798379422270039 Q 3.8906313227351133 -0.4884661226022943 3.900273854005879 -0.4937596649599518 Q 3.906410010269093 -0.4971282828239157 3.9157430474063526 -0.49882958167906316 Q 3.9913179181026512 -0.5003912856323606 4.073097823633958 -0.5093521478280758 Q 4.154877729165264 -0.518313010023791 4.22414470660843 -0.5209749333675224 Q 4.243377880501333 -0.5212665186987306 4.264441155991822 -0.5088734389518805 Q 4.28550443148231 -0.4964803592050305 4.293204129457084 -0.4824548591748265 Q 4.300422596308436 -0.4693059528965102 4.29078006503767 -0.46401241053885267 Q 4.285520502526344 -0.4611250237983122 4.2662873286334415 -0.460833438467104 Q 4.2460916924936924 -0.4622950406396712 4.214723963217948 -0.46332730033744307 Q 4.183356233942205 -0.46435956003521495 4.148877492287374 -0.4648247201146043 Q 4.114398750632544 -0.46528988019399364 4.083752868041935 -0.4650072492639339 Q 4.053106985451326 -0.46472461833387413 4.03483627380527 -0.46267984549889035 Q 4.053278722441244 -0.4602557810794763 4.088960541904633 -0.45759913662036755 Q 4.124642361368022 -0.4549424921612588 4.176067969639928 -0.4443875495340118 L 4.224777928161212 -0.43462333216369353 Q 4.273487886682496 -0.42485911479337524 4.298753439541357 -0.4079283192203338 Q 4.324018992400217 -0.39099752364729234 4.335087308238956 -0.3708358673538741 Q 4.343749468460577 -0.3550571798198946 4.342116129298091 -0.33933038093454315 Q 4.3404827901356065 -0.3236035820491917 4.321197727594075 -0.31301649733387665 Q 4.298406290044994 -0.30050448812486796 4.270759607014199 -0.29787562574833615 Q 4.243112923983404 -0.29524676337180433 4.226595399841123 -0.29416445278366743 Q 4.209201281946956 -0.29260091107210706 4.178400652289595 -0.29052215839079226 Q 4.147600022632234 -0.28844340570947746 4.113293017967321 -0.28443972853446897 Q 4.0789860133024085 -0.28043605135946054 4.050110308138741 -0.2748509236705947 Q 4.021234602975073 -0.26926579598172895 4.008085696696757 -0.26204732913037776 Q 3.996689977922216 -0.2557913245258734 4.000539826909604 -0.2487785745107714 Q 4.005352138143838 -0.2400126369918939 4.022496686075145 -0.23060176688169193 Q 4.039641234006453 -0.22119089677148984 4.05897726631748 -0.21298310446984633 Q 4.078313298628507 -0.20477531216820283 4.0896571287544194 -0.2007358173886004 Q 4.131835568384025 -0.18624515727900703 4.183261176655931 -0.1756902146517601 Q 4.190926894784375 -0.17419463263286178 4.1923705881546445 -0.1715648513771985 Q 4.193814281524915 -0.1689350701215353 4.188554719013588 -0.16604768338099485 Q 4.1859249377579255 -0.16460399001072462 4.180338891189928 -0.16438931877332685 Q 4.17475284462193 -0.1641746475359292 4.168049588740334 -0.163917042051052 Q 4.156396264480916 -0.16436429332814434 4.135676462970264 -0.16781969856619883 Q 4.114956661459612 -0.1712751038042532 4.095070519453367 -0.17632894947933053 Q 4.064803009568058 -0.18366910243023477 4.034123147131118 -0.19591638951148077 Q 4.003443284694178 -0.20816367659272672 3.9736230260859604 -0.2271571538030489 Q 3.966266802091022 -0.23224497932445726 3.960947315409051 -0.2367397609031691 Q 3.955627828727079 -0.24123454248188092 3.952826310481498 -0.2442596863660085 Q 3.9500247922359164 -0.2472848302501361 3.947661570866279 -0.2505505896959754 Q 3.945298349496641 -0.25381634914181467 3.9433734250029477 -0.25732272414936563 M 3.9104819296992575 0.006503503697647128 Q 3.8977352318833622 -0.030354625592785622 3.920641652870922 -0.060496720369703105 Q 3.943548073858482 -0.09063881514662059 3.998362727675023 -0.10959544266769528 Q 4.007813530057185 -0.11286382672305298 4.017427751642115 -0.11565967065930258 Q 4.027041973227045 -0.11845551459555217 4.03776469425296 -0.12110565681822942 Q 4.08603465635877 -0.13145025726018483 4.148856851110937 -0.12725241894496203 Q 4.211679045863105 -0.12305458062973923 4.290723100267699 -0.09642682324607264 Q 4.343419136537429 -0.07867498499029493 4.377284437999617 -0.04806222038343291 Q 4.411149739461805 -0.017449455776570894 4.4232427604666285 0.017518513037429406 Q 4.431740559010558 0.04209059923105124 4.428826524739112 0.0642605880507334 Q 4.4243846033751595 0.09119141303988781 4.392251875275807 0.10230391882810402 Q 4.368624869320402 0.11047487896649827 4.333916830755163 0.10343200604744726 Q 4.2992087921899245 0.09638913312839623 4.258692494081832 0.06490215824010015 Q 4.2060398163905095 0.022798767261063113 4.182278994121555 -0.009192220924724187 Q 4.158518171852601 -0.041183209110511446 4.150055808287062 -0.06259321618394884 Q 4.137045218422397 -0.06655863562878515 4.11222112558003 -0.06643857500442434 Q 4.0873970327376625 -0.06631851438006352 4.061499875432702 -0.0631820763490906 Q 4.035602718127742 -0.06004563831811768 4.016047436552346 -0.05539903068383473 Q 4.012267115599481 -0.05409167706169164 4.00785083532474 -0.05309344435588879 Q 4.003434555049999 -0.05209521165008593 3.998709153858918 -0.05046101962240708 Q 3.970356746712431 -0.040655867456333955 3.953469324848908 -0.023705499236044536 Q 3.9365819029853846 -0.006755131015755117 3.9454065399348504 0.01876203541608293 Q 3.953250661667709 0.04144396113327231 3.979594718002566 0.06407669618288309 Q 4.005938774337423 0.0867094312324938 4.038734973137026 0.10658175732424605 Q 4.071531171936629 0.12645408341599826 4.100149341421049 0.1403645246513085 Q 4.128767510905468 0.15427496588661865 4.142104939175669 0.15918546556967123 L 4.247567881671911 0.20101330032159553 L 4.304115108851288 0.22378194319559913 Q 4.307930864782544 0.2256366686936404 4.308584541593616 0.2275268291700729 Q 4.310545572026831 0.2331973105993702 4.3029849301211005 0.2358120178436564 Q 4.300149689406452 0.2367925330602637 4.2918999357112595 0.23435500070793297 Q 4.275400428320875 0.22947993600327155 4.257138744678434 0.22256900910860528 Q 4.238877061035994 0.21565808221393906 4.2229957954782895 0.20951109886552555 Q 4.203298773989329 0.20150939001907076 4.17297158072044 0.19030620527403247 Q 4.142644387451551 0.17910302052899413 4.109773356895158 0.16666335211859484 Q 4.076902326338765 0.15422368370819567 4.051137115058189 0.14091376681637036 Q 4.0037492868338305 0.11709373876897733 3.964959729999402 0.08448054695050161 Q 3.9261701731649743 0.051867355132025894 3.9104819296992575 0.006503503697647128 M 4.168118637748344 -0.059316908528575144 Q 4.173639455664061 -0.04641262359908377 4.189953864562474 -0.02983432265190078 Q 4.206268273460887 -0.013256021704717763 4.227016680123238 0.0039050860967546064 Q 4.247765086785587 0.021066193898226976 4.26784209914767 0.034756101663174666 Q 4.287919111509753 0.04844600942812238 4.301291974758344 0.05651858823135936 Q 4.325820702373559 0.07237234241068863 4.35020769007521 0.07557778010928018 Q 4.37459467777686 0.07878321780787165 4.38971596158832 0.07355380331929931 Q 4.400111844208698 0.06995858085840584 4.405874874883981 0.06214593230393048 Q 4.411637905559264 0.054333283749455064 4.408042683098371 0.04393740112907657 Q 4.401179076582119 0.024090716126535905 4.373797390763061 0.0076364376037216936 Q 4.346415704944001 -0.008817840919092504 4.308638136504564 -0.021676896981013216 Q 4.270860568065126 -0.03453595304293393 4.23311843460408 -0.044232929984670225 Q 4.195376301143034 -0.05392990692640649 4.168118637748344 -0.059316908528575144" fill="#343432" fill-rule="nonzero"></path></g><g transform="matrix(1,0,0,1,0,0)" clip-path="url(#SvgjsClipPath30374)"><g clip-path="url(#ab5ef7be3-6442-4137-9344-316909bf5d35e1e5d678-96b2-463c-a0d1-2a4260d2d962)"><path d=" M 3.7029822750280172 1.4188271501763061 C 3.669396369214408 1.4661651228298118 3.5646900385225218 1.4440619658957206 3.450951822348326 1.4150146960028696 C 3.42989255167601 1.4096591056163752 3.412237257944261 1.4051204696956172 3.400709122705536 1.4031234698904835 C 3.3765635796071036 1.3990386975618014 3.351555695683727 1.3949085388739118 3.3281363343326156 1.3982217430960648 C 3.3046262002630895 1.401761879114256 3.2856093157551136 1.4135169461490193 3.2773036120201264 1.4297652627453328 C 3.271766476196802 1.440657988955152 3.2714487716823486 1.4540015785621805 3.2763504984767673 1.4674813272468317 C 3.2822507251737525 1.4834573256878998 3.294414269441384 1.4966193698580978 3.309028677106225 1.5027011419919136 C 3.317793013584848 1.506394536421051 3.321929596120703 1.5164723870108545 3.318287494384571 1.5252581625180806 C 3.3146130963113722 1.534041648392758 3.304516184642889 1.5381860547918942 3.295730473858404 1.534516979796427 C 3.2716795560792273 1.5239595926008858 3.252999172348227 1.5040163558871928 3.244035410720971 1.4793271670000099 C 3.2357297069859836 1.4568155328330503 3.236637434170135 1.4336231032779772 3.2466224331958027 1.4141069688187178 C 3.2599660228028307 1.3880098122743596 3.288559429103606 1.3693560186400442 3.3230076757421596 1.3641819736903802 C 3.3519641729165954 1.3597341104880374 3.380966056450239 1.3647719963600786 3.406518576684106 1.369174473203214 C 3.4186821209517375 1.3712622457267625 3.4373359145860527 1.375982427084351 3.4594844578793515 1.3816103356260907 C 3.5171251340729777 1.3963609023685541 3.6522403254339433 1.4308091490071073 3.6748881186785254 1.3989025384841787 C 3.676431254891583 1.3967239932422149 3.6783828683375086 1.3930023117871935 3.676975891202074 1.3866028351389246 C 3.6742073232904113 1.3743939045120857 3.6609545064017985 1.3590533150999236 3.645432371552806 1.3502029750544458 C 3.5447200404711867 1.2928800033752723 3.225245458009032 1.1302152919753066 2.8870716955533555 0.9579740587825414 C 2.555342796105155 0.7890006434527221 2.212358079573475 0.6143539332219551 2.0403891645359553 0.5211303514095863 L 1.698266788829219 0.3396303009384749 C 1.631231136279624 0.29837410041878504 1.6012761392026211 0.20687520025630413 1.629143363756075 0.13080766222440063 C 1.655376679378056 0.05918798739483979 1.7270417405668246 0.006857515228500214 1.8074663690826558 0.0006395840170619224 C 1.8842147025026734 -0.005442188116753845 1.962324626698918 0.03132076284138581 2.005532440664534 0.09404471126626097 C 2.0293151042267823 0.12911814979628478 2.0421855578378634 0.1704457290603328 2.0425223234187113 0.2128208133124972 C 2.042558577943604 0.21739499601808973 2.040776186874907 0.2217962190316852 2.0375672854923312 0.2250561904627901 C 2.0343583841097552 0.22831616189389514 2.0299858509537927 0.23016781945866746 2.0254116659974533 0.2302037888890003 L 2.0252755069198307 0.2302037888890003 C 2.0158208030148344 0.23020431270966957 2.008128213605592 0.2225926979257881 2.00802869042095 0.2131385178269503 C 2.00782030519398 0.17764430183826072 1.9970962183156924 0.1430081861915969 1.9772113525190043 0.11360623208472892 C 1.9407207197161094 0.06077650996710483 1.8745020216322505 0.03009533114278111 1.8101895506351102 0.03495167157799201 C 1.7440162389104588 0.04008033016844846 1.6828354266986414 0.0843774167550464 1.6615492242302867 0.1426988883367863 C 1.6390829764225345 0.20392508690781136 1.6627746559288912 0.277314829746468 1.7154228326096834 0.3097206902206798 L 2.0566828674914754 0.4907668770997154 C 2.22837946437375 0.5838089134752539 2.5711372491093925 0.7584102373468132 2.9026846031207625 0.9272928799582175 C 3.2412668428093077 1.0996702722286054 3.561059129785914 1.262561915424609 3.6624976426148548 1.320247977977443 C 3.680969890812341 1.3307776133136013 3.7046615703186974 1.3525630657332397 3.7106071833748904 1.3791594722288816 C 3.713784228519421 1.393592334456892 3.711151819685382 1.4072990149375808 3.7029822750280172 1.4188271501763061 M 0.7617646529400182 1.430718376288692 C 0.7536452235826026 1.4258768880205437 0.7431476991266546 1.428370552833834 0.7380729734336613 1.436346284830432 C 0.7356707081302911 1.440240102957503 0.7349140600784227 1.4449288839633574 0.7359695564921478 1.44938069545028 C 0.7370250529058735 1.4538325069372027 0.7398061907059023 1.4576825012401216 0.7437008819754012 1.4600833506959963 C 0.7518025300535324 1.4650148615646963 0.7591672959191681 1.4710655820684133 0.7655771071134545 1.4780563489421978 C 0.7820523555058059 1.4960293471883994 0.7903126728815856 1.5219449582959275 0.7883156730764522 1.5491313874612678 C 0.7863186732713188 1.5763178166266079 0.7742912880813102 1.600735677880286 0.7554105626509571 1.6160762672924478 C 0.7364844508613962 1.631371470345402 0.710251135239415 1.6381794242265393 0.6831554787924902 1.634639288208348 C 0.6561505950639805 1.6310083794717416 0.6324589155576233 1.6176194035055056 0.6182075987664439 1.5978763372502083 C 0.6155722578079319 1.5941344447303352 0.6115409455535927 1.591611605535217 0.6070234874523961 1.590877198358085 C 0.6025060293511995 1.5901427911809527 0.5978831605709972 1.5912587124763153 0.5941982147456342 1.5939731103583565 C 0.5904870033656731 1.596631927941859 0.5879885858120225 1.6006602891479667 0.5872560107471111 1.6051664776286414 C 0.5865234356822004 1.6096726661093166 0.5876171277935331 1.6142849997751378 0.5902949878537823 1.617982494379166 C 0.61003805410908 1.645441241699752 0.642262369146461 1.6639134898972368 0.6786622292309404 1.668769830332448 C 0.6848318784137288 1.6695815706368788 0.6910478176555382 1.669990912977193 0.6972706365060479 1.6699952620310525 C 0.7270894745054277 1.6699952620310525 0.7554105626509577 1.6605095129566683 0.7771052423521805 1.6428088328657124 C 0.8033385579741619 1.6215226303973573 0.8199499654441359 1.5882998154574088 0.8226731469965907 1.5516730235768923 C 0.8253963285490454 1.5150462316963753 0.8138228069511125 1.4797356442328782 0.7909934682696997 1.4548185330279169 C 0.7824190988598027 1.4454645511492263 0.7725812805654109 1.4373529338909627 0.7617646529400182 1.430718376288692 M 0.44469554751586576 1.4079798103256946 C 0.4289010945116279 1.4077528785296567 0.08991037759021521 1.4074805603744114 0.04860879071131693 1.4074351740152038 C 0.04417728878978988 1.4054648319336518 0.04022796613449746 1.4025531744466124 0.0370352691133847 1.3989025384841787 C 0.035446746541119005 1.3966786068830073 0.0334951330951928 1.3929569254279857 0.034992882949043375 1.3865120624205094 C 0.03771606450149848 1.3742123590752553 0.05096888139011153 1.3589625423815086 0.06644562987989616 1.3502483614136533 C 0.1613938933421525 1.2967832302671243 0.4958913607020161 1.1272651786268137 0.8499957352395529 0.947762127960836 C 1.2233893124403117 0.7584556237060208 1.6095364565784 0.5627042564437293 1.7817323034119577 0.4694806746313605 C 1.7871400008293423 0.4665457625096448 1.790571162298015 0.46094881961302514 1.7907333024705974 0.45479816021060165 C 1.7908954426431798 0.44864750080817856 1.787763928569686 0.44287755640466503 1.782518371321193 0.43966180926395804 C 1.7772728140726997 0.436446062123251 1.7707101386018131 0.43627306074769234 1.7653024413001364 0.439207973082605 C 1.5935150717781241 0.5321592366970281 1.2075948594360735 0.7278198312409043 0.8344282140313528 0.9170355627773042 C 0.47996074862015453 1.096674772520905 0.14514557674583897 1.2664197559572534 0.04951651789546819 1.3202025916182352 C 0.031044269697983733 1.330596067876771 0.007352590191626546 1.3522907475779942 0.0013615907762262345 1.378977926792051 C -0.002016559913963805 1.392746061500886 0.0007490199260869757 1.4073026164673783 0.008941112763892244 1.4188725365355135 C 0.016566021110765487 1.4294929445900872 0.027322588242961576 1.4353931712870727 0.03685372367655313 1.4401133526446608 L 0.044478632023427035 1.441928807012964 C 0.044478632023427035 1.441928807012964 0.4274033446577773 1.4422011251682096 0.44419629756458223 1.4424734433234552 L 0.4444686157198276 1.4424734433234552 C 0.45381820571658893 1.4424734433234552 0.46153388678187796 1.4348939213357894 0.46171543221870753 1.4254535586206127 C 0.4618165093323999 1.4159380971216746 0.4542103742213599 1.408129131741008 0.4446955475158651 1.4079798103256944 M 3.124850831441865 1.410521446441319 L 0.7799645829822569 1.3588263833038856 L 0.7796014921085964 1.3588263833038856 C 0.7058486583962796 1.3588263833038856 0.566240217473764 1.3726238365029897 0.566240217473764 1.4246366041548761 C 0.566240217473764 1.460401055210449 0.6317327338103017 1.4777386444277445 0.6969075456323868 1.4852727800562027 C 0.7169683164021369 1.4894029387440926 0.7098880443657544 1.467345168169209 0.6933674096141955 1.4602648961328264 C 0.6443047553108017 1.4525946014267455 0.6108096222156075 1.4397502617710003 0.6108096222156075 1.4246819905140837 C 0.6108096222156075 1.4007633792116894 0.6919150461195528 1.3813834038300528 0.7919011954538506 1.3813834038300528 C 0.8919327311473564 1.3813834038300528 0.9730381550513014 1.4007633792116894 0.9730381550513014 1.4246819905140837 C 0.9730381550513014 1.445514329390363 0.921570023709906 1.462806532248451 0.839602258981017 1.4669366909363406 C 0.8238531923359866 1.4713391677794758 0.8329758505367104 1.4915814839860562 0.8482710535896648 1.4892213933072622 L 3.1248508314418655 1.4387517618684336 C 3.13264641778852 1.4387517618684336 3.1389659891554227 1.4324321905015305 3.1389659891554227 1.4246366041548761 C 3.1389659891554227 1.416841017808222 3.13264641778852 1.410521446441319 3.1248508314418655 1.410521446441319" fill="#343432" transform="matrix(1,0,0,1,0,0)" fill-rule="nonzero"></path></g></g><g transform="matrix(-0.12424965148669995,-0.9922509884628151,0.9922509884628151,-0.12424965148669995,-2.073341905125099,0.33993939434310216)"><g clip-path="url(#SvgjsClipPath30375)"><path d=" M -0.8866574748584009 1.1954077105576553 C -0.8798269170997802 1.1954077105576553 -0.8763567420997802 1.1907458579714485 -0.8699604188239182 1.1822881545231727 L -0.8057739007204698 1.0965256105576553 C -0.8023037257204699 1.0919710829714484 -0.8006778136515044 1.0876349062473105 -0.8006778136515044 1.082971820040414 C -0.8006778136515044 1.0783099674542072 -0.8023037257204699 1.0739725571093794 -0.8057739007204698 1.0694192631438622 L -0.8699604188239182 0.9836561023680002 C -0.8763567420997802 0.9751991390921381 -0.8798269170997802 0.9705369164197243 -0.8866574748584009 0.9705369164197243 C -0.8935965912377113 0.9705369164197243 -0.8970667662377112 0.9751991390921381 -0.9034630895135733 0.9836561023680002 L -0.9676499777032285 1.0694192631438622 C -0.9711195358928837 1.0739725571093794 -0.972745941410125 1.0783099674542072 -0.972745941410125 1.082971820040414 C -0.972745941410125 1.0876349062473105 -0.9711195358928837 1.0919710829714484 -0.9676499777032285 1.0965256105576553 L -0.9034630895135733 1.1822881545231727 C -0.8970667662377112 1.1907458579714485 -0.8935965912377113 1.1954077105576553 -0.8866574748584009 1.1954077105576553 Z" fill="#343432" transform="matrix(1,0,0,1,0,0)" fill-rule="nonzero"></path></g></g><g transform="matrix(0.12424965148669995,-0.9922509884628151,-0.9922509884628151,-0.12424965148669995,5.103714594366255,5.782659247226212)"><g clip-path="url(#SvgjsClipPath30376)"><path d=" M 4.598567449245644 1.1954077105576553 C 4.605398007004265 1.1954077105576553 4.608868182004265 1.1907458579714485 4.615264505280127 1.1822881545231727 L 4.679451023383575 1.0965256105576553 C 4.682921198383576 1.0919710829714484 4.684547110452541 1.0876349062473105 4.684547110452541 1.082971820040414 C 4.684547110452541 1.0783099674542072 4.682921198383576 1.0739725571093794 4.679451023383575 1.0694192631438622 L 4.615264505280127 0.9836561023680002 C 4.608868182004265 0.9751991390921381 4.605398007004265 0.9705369164197243 4.598567449245644 0.9705369164197243 C 4.591628332866334 0.9705369164197243 4.588158157866334 0.9751991390921381 4.581761834590472 0.9836561023680002 L 4.517574946400817 1.0694192631438622 C 4.514105388211162 1.0739725571093794 4.51247898269392 1.0783099674542072 4.51247898269392 1.082971820040414 C 4.51247898269392 1.0876349062473105 4.514105388211162 1.0919710829714484 4.517574946400817 1.0965256105576553 L 4.581761834590472 1.1822881545231727 C 4.588158157866334 1.1907458579714485 4.591628332866334 1.1954077105576553 4.598567449245644 1.1954077105576553 Z" fill="#343432" transform="matrix(1,0,0,1,0,0)" fill-rule="nonzero"></path></g></g></g><defs><clipPath id="SvgjsClipPath30374"><path d=" M 0 0 h 3.7119099743872432 v 1.6699952620310525 h -3.7119099743872432 Z"></path></clipPath><clipPath id="ab5ef7be3-6442-4137-9344-316909bf5d35e1e5d678-96b2-463c-a0d1-2a4260d2d962"><path d=" M 0 1.6699952620310525 L 3.7119233877919107 1.6699952620310525 L 3.7119233877919107 0.000004174988155544005 L 0 0.000004174988155544005 Z"></path></clipPath><clipPath id="SvgjsClipPath30375"><path d=" M -1.059364371410125 0.9060496415921381 h 0.34541379310344833 v 0.35775000000000007 h -0.34541379310344833 Z"></path></clipPath><clipPath id="SvgjsClipPath30376"><path d=" M 4.42586055269392 0.9060496415921381 h 0.34541379310344833 v 0.35775000000000007 h -0.34541379310344833 Z"></path></clipPath></defs></svg>